<mxfile host="app.diagrams.net" modified="2020-06-19T18:28:20.263Z" agent="5.0 (Macintosh; Intel Mac OS X 10_15_5) AppleWebKit/537.36 (KHTML, like Gecko) Chrome/83.0.4103.106 Safari/537.36" etag="_9tKyPBz_PaCt9HwbS30" version="13.3.0" type="github" pages="3">
  <diagram id="bZqMkssgzoKAFsCov6mc" name="current jenkins">
    <mxGraphModel dx="732" dy="442" grid="1" gridSize="10" guides="1" tooltips="1" connect="1" arrows="1" fold="1" page="1" pageScale="1" pageWidth="850" pageHeight="1100" math="0" shadow="0">
      <root>
        <mxCell id="NepiQIgojPNr5nZYY-pR-0" />
        <mxCell id="NepiQIgojPNr5nZYY-pR-1" parent="NepiQIgojPNr5nZYY-pR-0" />
        <mxCell id="NepiQIgojPNr5nZYY-pR-2" value="AWS Infra (VPC/IAM/SG)" style="rounded=1;whiteSpace=wrap;html=1;fontSize=12;glass=0;strokeWidth=1;shadow=0;" parent="NepiQIgojPNr5nZYY-pR-1" vertex="1">
          <mxGeometry x="160" y="430" width="350" height="40" as="geometry" />
        </mxCell>
        <mxCell id="NepiQIgojPNr5nZYY-pR-18" value="&lt;ul&gt;&lt;li&gt;&lt;span&gt;Networking&lt;/span&gt;&lt;/li&gt;&lt;li&gt;&lt;span&gt;Permissions&lt;/span&gt;&lt;/li&gt;&lt;/ul&gt;" style="text;html=1;strokeColor=none;fillColor=none;align=left;verticalAlign=middle;whiteSpace=wrap;rounded=0;" parent="NepiQIgojPNr5nZYY-pR-1" vertex="1">
          <mxGeometry x="4" y="415" width="120" height="70" as="geometry" />
        </mxCell>
        <mxCell id="NepiQIgojPNr5nZYY-pR-19" value="Amazon ECR" style="outlineConnect=0;fontColor=#232F3E;gradientColor=none;strokeColor=#ffffff;fillColor=#232F3E;dashed=0;verticalLabelPosition=middle;verticalAlign=bottom;align=center;html=1;whiteSpace=wrap;fontSize=10;fontStyle=1;spacing=3;shape=mxgraph.aws4.productIcon;prIcon=mxgraph.aws4.ecr;" parent="NepiQIgojPNr5nZYY-pR-1" vertex="1">
          <mxGeometry x="200" y="10" width="80" height="100" as="geometry" />
        </mxCell>
        <mxCell id="NepiQIgojPNr5nZYY-pR-20" value="Amazon S3" style="outlineConnect=0;fontColor=#232F3E;gradientColor=none;strokeColor=#ffffff;fillColor=#232F3E;dashed=0;verticalLabelPosition=middle;verticalAlign=bottom;align=center;html=1;whiteSpace=wrap;fontSize=10;fontStyle=1;spacing=3;shape=mxgraph.aws4.productIcon;prIcon=mxgraph.aws4.s3;" parent="NepiQIgojPNr5nZYY-pR-1" vertex="1">
          <mxGeometry x="320" y="10" width="80" height="100" as="geometry" />
        </mxCell>
        <mxCell id="NepiQIgojPNr5nZYY-pR-21" value="Artifactory" style="outlineConnect=0;fontColor=#232F3E;gradientColor=none;fillColor=#277116;strokeColor=none;dashed=0;verticalLabelPosition=bottom;verticalAlign=top;align=center;html=1;fontSize=12;fontStyle=0;aspect=fixed;pointerEvents=1;shape=mxgraph.aws4.vault;" parent="NepiQIgojPNr5nZYY-pR-1" vertex="1">
          <mxGeometry x="102" y="10" width="62" height="78" as="geometry" />
        </mxCell>
        <mxCell id="NepiQIgojPNr5nZYY-pR-22" value="" style="dashed=0;outlineConnect=0;html=1;align=center;labelPosition=center;verticalLabelPosition=bottom;verticalAlign=top;shape=mxgraph.weblogos.github" parent="NepiQIgojPNr5nZYY-pR-1" vertex="1">
          <mxGeometry x="27" y="110" width="75" height="75" as="geometry" />
        </mxCell>
        <mxCell id="NepiQIgojPNr5nZYY-pR-23" value="" style="endArrow=classic;html=1;" parent="NepiQIgojPNr5nZYY-pR-1" target="NepiQIgojPNr5nZYY-pR-27" edge="1">
          <mxGeometry width="50" height="50" relative="1" as="geometry">
            <mxPoint x="110" y="170" as="sourcePoint" />
            <mxPoint x="410" y="220" as="targetPoint" />
          </mxGeometry>
        </mxCell>
        <mxCell id="NepiQIgojPNr5nZYY-pR-24" value="" style="endArrow=classic;html=1;" parent="NepiQIgojPNr5nZYY-pR-1" source="NepiQIgojPNr5nZYY-pR-27" edge="1" target="NepiQIgojPNr5nZYY-pR-21">
          <mxGeometry width="50" height="50" relative="1" as="geometry">
            <mxPoint x="480" y="230" as="sourcePoint" />
            <mxPoint x="200" y="80" as="targetPoint" />
          </mxGeometry>
        </mxCell>
        <mxCell id="NepiQIgojPNr5nZYY-pR-25" value="" style="endArrow=classic;html=1;" parent="NepiQIgojPNr5nZYY-pR-1" source="NepiQIgojPNr5nZYY-pR-27" target="NepiQIgojPNr5nZYY-pR-19" edge="1">
          <mxGeometry width="50" height="50" relative="1" as="geometry">
            <mxPoint x="480" y="230" as="sourcePoint" />
            <mxPoint x="210" y="90" as="targetPoint" />
          </mxGeometry>
        </mxCell>
        <mxCell id="NepiQIgojPNr5nZYY-pR-26" value="" style="endArrow=classic;html=1;" parent="NepiQIgojPNr5nZYY-pR-1" source="NepiQIgojPNr5nZYY-pR-27" target="NepiQIgojPNr5nZYY-pR-20" edge="1">
          <mxGeometry width="50" height="50" relative="1" as="geometry">
            <mxPoint x="480" y="230" as="sourcePoint" />
            <mxPoint x="220" y="100" as="targetPoint" />
          </mxGeometry>
        </mxCell>
        <mxCell id="NepiQIgojPNr5nZYY-pR-27" value="Amazon EC2&lt;br&gt;Jenkins Agents&lt;br&gt;Install SDK&lt;br&gt;Build Environment" style="outlineConnect=0;fontColor=#232F3E;gradientColor=none;strokeColor=#ffffff;fillColor=#232F3E;dashed=0;verticalLabelPosition=middle;verticalAlign=bottom;align=center;html=1;whiteSpace=wrap;fontSize=10;fontStyle=1;spacing=3;shape=mxgraph.aws4.productIcon;prIcon=mxgraph.aws4.ec2;" parent="NepiQIgojPNr5nZYY-pR-1" vertex="1">
          <mxGeometry x="220" y="150" width="94" height="150" as="geometry" />
        </mxCell>
        <mxCell id="NepiQIgojPNr5nZYY-pR-28" value="Jekins Master" style="shadow=0;dashed=0;html=1;strokeColor=none;fillColor=#4495D1;labelPosition=center;verticalLabelPosition=bottom;verticalAlign=top;align=center;outlineConnect=0;shape=mxgraph.veeam.2d.virtual_machine;" parent="NepiQIgojPNr5nZYY-pR-1" vertex="1">
          <mxGeometry x="660" y="160" width="117" height="93" as="geometry" />
        </mxCell>
        <mxCell id="NepiQIgojPNr5nZYY-pR-32" value="&lt;ul&gt;&lt;li&gt;&lt;b&gt;&lt;font color=&quot;#ea6b66&quot;&gt;&lt;span&gt;shared library&lt;/span&gt;&lt;br&gt;&lt;/font&gt;&lt;/b&gt;&lt;/li&gt;&lt;ul&gt;&lt;li&gt;&lt;font color=&quot;#ea6b66&quot;&gt;&lt;b&gt;run commands&lt;/b&gt;&lt;/font&gt;&lt;/li&gt;&lt;/ul&gt;&lt;li&gt;&lt;span&gt;shared credentials&lt;/span&gt;&lt;/li&gt;&lt;/ul&gt;" style="text;html=1;align=left;verticalAlign=middle;resizable=0;points=[];autosize=1;" parent="NepiQIgojPNr5nZYY-pR-1" vertex="1">
          <mxGeometry x="490" y="175" width="180" height="70" as="geometry" />
        </mxCell>
        <mxCell id="NepiQIgojPNr5nZYY-pR-33" value="Amazon EC2&lt;br&gt;Jenkins Agents&lt;br&gt;Install SDK&lt;br&gt;Build Environment" style="outlineConnect=0;fontColor=#232F3E;gradientColor=none;strokeColor=#ffffff;fillColor=#232F3E;dashed=0;verticalLabelPosition=middle;verticalAlign=bottom;align=center;html=1;whiteSpace=wrap;fontSize=10;fontStyle=1;spacing=3;shape=mxgraph.aws4.productIcon;prIcon=mxgraph.aws4.ec2;" parent="NepiQIgojPNr5nZYY-pR-1" vertex="1">
          <mxGeometry x="350" y="150" width="94" height="150" as="geometry" />
        </mxCell>
      </root>
    </mxGraphModel>
  </diagram>
  <diagram id="C5RBs43oDa-KdzZeNtuy" name="Jenkins">
    <mxGraphModel dx="732" dy="442" grid="1" gridSize="10" guides="1" tooltips="1" connect="1" arrows="1" fold="1" page="1" pageScale="1" pageWidth="827" pageHeight="1169" math="0" shadow="0">
      <root>
        <mxCell id="WIyWlLk6GJQsqaUBKTNV-0" />
        <mxCell id="WIyWlLk6GJQsqaUBKTNV-1" parent="WIyWlLk6GJQsqaUBKTNV-0" />
        <mxCell id="WIyWlLk6GJQsqaUBKTNV-11" value="AWS Infra (VPC/IAM/SG)" style="rounded=1;whiteSpace=wrap;html=1;fontSize=12;glass=0;strokeWidth=1;shadow=0;" parent="WIyWlLk6GJQsqaUBKTNV-1" vertex="1">
          <mxGeometry x="160" y="430" width="350" height="40" as="geometry" />
        </mxCell>
        <mxCell id="7L3rl63r9LP6kfRCwzT1-2" value="Amazon EKS" style="outlineConnect=0;fontColor=#232F3E;gradientColor=none;strokeColor=#ffffff;fillColor=#232F3E;dashed=0;verticalLabelPosition=middle;verticalAlign=bottom;align=center;html=1;whiteSpace=wrap;fontSize=10;fontStyle=1;spacing=3;shape=mxgraph.aws4.productIcon;prIcon=mxgraph.aws4.eks;" parent="WIyWlLk6GJQsqaUBKTNV-1" vertex="1">
          <mxGeometry x="215" y="330" width="80" height="100" as="geometry" />
        </mxCell>
        <mxCell id="7L3rl63r9LP6kfRCwzT1-3" value="Container" style="swimlane;" parent="WIyWlLk6GJQsqaUBKTNV-1" vertex="1">
          <mxGeometry x="160" y="220" width="190" height="80" as="geometry" />
        </mxCell>
        <mxCell id="7L3rl63r9LP6kfRCwzT1-4" value="Jenkins Master" style="text;html=1;align=center;verticalAlign=middle;resizable=0;points=[];autosize=1;" parent="7L3rl63r9LP6kfRCwzT1-3" vertex="1">
          <mxGeometry x="55" y="41" width="100" height="20" as="geometry" />
        </mxCell>
        <mxCell id="7L3rl63r9LP6kfRCwzT1-5" value="Container" style="swimlane;" parent="WIyWlLk6GJQsqaUBKTNV-1" vertex="1">
          <mxGeometry x="400" y="100" width="200" height="200" as="geometry" />
        </mxCell>
        <mxCell id="7L3rl63r9LP6kfRCwzT1-6" value="Jenkins Agents" style="text;html=1;align=center;verticalAlign=middle;resizable=0;points=[];autosize=1;" parent="7L3rl63r9LP6kfRCwzT1-5" vertex="1">
          <mxGeometry x="50" y="30" width="100" height="20" as="geometry" />
        </mxCell>
        <mxCell id="7L3rl63r9LP6kfRCwzT1-7" value="Container" style="swimlane;" parent="7L3rl63r9LP6kfRCwzT1-5" vertex="1">
          <mxGeometry x="20" y="61" width="160" height="120" as="geometry" />
        </mxCell>
        <mxCell id="7L3rl63r9LP6kfRCwzT1-8" value="Build Environment (JDK)" style="text;html=1;align=center;verticalAlign=middle;resizable=0;points=[];autosize=1;" parent="7L3rl63r9LP6kfRCwzT1-7" vertex="1">
          <mxGeometry x="10" y="29" width="150" height="20" as="geometry" />
        </mxCell>
        <mxCell id="7L3rl63r9LP6kfRCwzT1-9" value="Build Commands" style="text;html=1;align=center;verticalAlign=middle;resizable=0;points=[];autosize=1;" parent="7L3rl63r9LP6kfRCwzT1-7" vertex="1">
          <mxGeometry x="26" y="81" width="110" height="20" as="geometry" />
        </mxCell>
        <mxCell id="7L3rl63r9LP6kfRCwzT1-10" value="Container" style="swimlane;" parent="WIyWlLk6GJQsqaUBKTNV-1" vertex="1">
          <mxGeometry x="610" y="100" width="200" height="200" as="geometry" />
        </mxCell>
        <mxCell id="7L3rl63r9LP6kfRCwzT1-11" value="Jenkins Agents" style="text;html=1;align=center;verticalAlign=middle;resizable=0;points=[];autosize=1;" parent="7L3rl63r9LP6kfRCwzT1-10" vertex="1">
          <mxGeometry x="50" y="30" width="100" height="20" as="geometry" />
        </mxCell>
        <mxCell id="7L3rl63r9LP6kfRCwzT1-12" value="Container" style="swimlane;" parent="7L3rl63r9LP6kfRCwzT1-10" vertex="1">
          <mxGeometry x="20" y="61" width="165" height="120" as="geometry" />
        </mxCell>
        <mxCell id="7L3rl63r9LP6kfRCwzT1-13" value="Build Environment (Python)" style="text;html=1;align=center;verticalAlign=middle;resizable=0;points=[];autosize=1;" parent="7L3rl63r9LP6kfRCwzT1-12" vertex="1">
          <mxGeometry x="5" y="29" width="160" height="20" as="geometry" />
        </mxCell>
        <mxCell id="7L3rl63r9LP6kfRCwzT1-14" value="Build Commands" style="text;html=1;align=center;verticalAlign=middle;resizable=0;points=[];autosize=1;" parent="7L3rl63r9LP6kfRCwzT1-12" vertex="1">
          <mxGeometry x="26" y="81" width="110" height="20" as="geometry" />
        </mxCell>
        <mxCell id="7L3rl63r9LP6kfRCwzT1-15" value="&lt;ul&gt;&lt;li&gt;AuthZ&lt;/li&gt;&lt;li&gt;Docker Env&lt;/li&gt;&lt;li&gt;&lt;span&gt;source code&lt;/span&gt;&lt;/li&gt;&lt;li&gt;&lt;span&gt;build scheduling&lt;/span&gt;&lt;br&gt;&lt;/li&gt;&lt;li&gt;&lt;span&gt;build trigger&lt;/span&gt;&lt;/li&gt;&lt;li&gt;&lt;span&gt;shared credentials&lt;/span&gt;&lt;/li&gt;&lt;/ul&gt;" style="text;html=1;align=left;verticalAlign=middle;resizable=0;points=[];autosize=1;" parent="WIyWlLk6GJQsqaUBKTNV-1" vertex="1">
          <mxGeometry x="10" y="205" width="150" height="110" as="geometry" />
        </mxCell>
        <mxCell id="7L3rl63r9LP6kfRCwzT1-17" value="&lt;ul&gt;&lt;li&gt;scaling&lt;/li&gt;&lt;li&gt;resource&lt;/li&gt;&lt;li&gt;HA&lt;/li&gt;&lt;li&gt;permissions&lt;/li&gt;&lt;/ul&gt;" style="text;html=1;strokeColor=none;fillColor=none;align=left;verticalAlign=middle;whiteSpace=wrap;rounded=0;" parent="WIyWlLk6GJQsqaUBKTNV-1" vertex="1">
          <mxGeometry x="4" y="345" width="120" height="70" as="geometry" />
        </mxCell>
        <mxCell id="7L3rl63r9LP6kfRCwzT1-21" value="&lt;ul&gt;&lt;li&gt;&lt;span&gt;Networking&lt;/span&gt;&lt;/li&gt;&lt;li&gt;&lt;span&gt;Permissions&lt;/span&gt;&lt;/li&gt;&lt;/ul&gt;" style="text;html=1;strokeColor=none;fillColor=none;align=left;verticalAlign=middle;whiteSpace=wrap;rounded=0;" parent="WIyWlLk6GJQsqaUBKTNV-1" vertex="1">
          <mxGeometry x="4" y="415" width="120" height="70" as="geometry" />
        </mxCell>
        <mxCell id="7L3rl63r9LP6kfRCwzT1-22" value="Amazon ECR" style="outlineConnect=0;fontColor=#232F3E;gradientColor=none;strokeColor=#ffffff;fillColor=#232F3E;dashed=0;verticalLabelPosition=middle;verticalAlign=bottom;align=center;html=1;whiteSpace=wrap;fontSize=10;fontStyle=1;spacing=3;shape=mxgraph.aws4.productIcon;prIcon=mxgraph.aws4.ecr;" parent="WIyWlLk6GJQsqaUBKTNV-1" vertex="1">
          <mxGeometry x="240" y="10" width="80" height="100" as="geometry" />
        </mxCell>
        <mxCell id="7L3rl63r9LP6kfRCwzT1-23" value="Amazon S3" style="outlineConnect=0;fontColor=#232F3E;gradientColor=none;strokeColor=#ffffff;fillColor=#232F3E;dashed=0;verticalLabelPosition=middle;verticalAlign=bottom;align=center;html=1;whiteSpace=wrap;fontSize=10;fontStyle=1;spacing=3;shape=mxgraph.aws4.productIcon;prIcon=mxgraph.aws4.s3;" parent="WIyWlLk6GJQsqaUBKTNV-1" vertex="1">
          <mxGeometry x="360" y="10" width="80" height="100" as="geometry" />
        </mxCell>
        <mxCell id="7L3rl63r9LP6kfRCwzT1-24" value="Artifactory" style="outlineConnect=0;fontColor=#232F3E;gradientColor=none;fillColor=#277116;strokeColor=none;dashed=0;verticalLabelPosition=bottom;verticalAlign=top;align=center;html=1;fontSize=12;fontStyle=0;aspect=fixed;pointerEvents=1;shape=mxgraph.aws4.vault;" parent="WIyWlLk6GJQsqaUBKTNV-1" vertex="1">
          <mxGeometry x="110" y="10" width="62" height="78" as="geometry" />
        </mxCell>
        <mxCell id="7L3rl63r9LP6kfRCwzT1-25" value="" style="dashed=0;outlineConnect=0;html=1;align=center;labelPosition=center;verticalLabelPosition=bottom;verticalAlign=top;shape=mxgraph.weblogos.github" parent="WIyWlLk6GJQsqaUBKTNV-1" vertex="1">
          <mxGeometry x="27" y="110" width="75" height="75" as="geometry" />
        </mxCell>
        <mxCell id="7L3rl63r9LP6kfRCwzT1-26" value="" style="endArrow=classic;html=1;" parent="WIyWlLk6GJQsqaUBKTNV-1" edge="1">
          <mxGeometry width="50" height="50" relative="1" as="geometry">
            <mxPoint x="110" y="170" as="sourcePoint" />
            <mxPoint x="410" y="220" as="targetPoint" />
          </mxGeometry>
        </mxCell>
        <mxCell id="7L3rl63r9LP6kfRCwzT1-27" value="" style="endArrow=classic;html=1;" parent="WIyWlLk6GJQsqaUBKTNV-1" edge="1" target="7L3rl63r9LP6kfRCwzT1-24">
          <mxGeometry width="50" height="50" relative="1" as="geometry">
            <mxPoint x="480" y="230" as="sourcePoint" />
            <mxPoint x="200" y="80" as="targetPoint" />
          </mxGeometry>
        </mxCell>
        <mxCell id="7L3rl63r9LP6kfRCwzT1-28" value="" style="endArrow=classic;html=1;" parent="WIyWlLk6GJQsqaUBKTNV-1" target="7L3rl63r9LP6kfRCwzT1-22" edge="1">
          <mxGeometry width="50" height="50" relative="1" as="geometry">
            <mxPoint x="480" y="230" as="sourcePoint" />
            <mxPoint x="210" y="90" as="targetPoint" />
          </mxGeometry>
        </mxCell>
        <mxCell id="7L3rl63r9LP6kfRCwzT1-29" value="" style="endArrow=classic;html=1;" parent="WIyWlLk6GJQsqaUBKTNV-1" target="7L3rl63r9LP6kfRCwzT1-23" edge="1">
          <mxGeometry width="50" height="50" relative="1" as="geometry">
            <mxPoint x="480" y="230" as="sourcePoint" />
            <mxPoint x="220" y="100" as="targetPoint" />
          </mxGeometry>
        </mxCell>
      </root>
    </mxGraphModel>
  </diagram>
  <diagram id="RZHRXkjhTaX_e0c8EJYi" name="Codebuild">
    <mxGraphModel dx="732" dy="442" grid="1" gridSize="10" guides="1" tooltips="1" connect="1" arrows="1" fold="1" page="1" pageScale="1" pageWidth="850" pageHeight="1100" math="0" shadow="0">
      <root>
        <mxCell id="Ba1Su-A6dtB4cg2xG0cj-0" />
        <mxCell id="Ba1Su-A6dtB4cg2xG0cj-1" parent="Ba1Su-A6dtB4cg2xG0cj-0" />
        <mxCell id="PO74r3kyPt4lwbCq_lyf-0" value="AWS Infra (VPC/IAM/SG)" style="rounded=1;whiteSpace=wrap;html=1;fontSize=12;glass=0;strokeWidth=1;shadow=0;" parent="Ba1Su-A6dtB4cg2xG0cj-1" vertex="1">
          <mxGeometry x="160" y="430" width="350" height="40" as="geometry" />
        </mxCell>
        <mxCell id="PO74r3kyPt4lwbCq_lyf-2" value="Terraform Project" style="swimlane;" parent="Ba1Su-A6dtB4cg2xG0cj-1" vertex="1">
          <mxGeometry x="160" y="220" width="200" height="96" as="geometry" />
        </mxCell>
        <mxCell id="PO74r3kyPt4lwbCq_lyf-3" value="&lt;div style=&quot;text-align: left&quot;&gt;&lt;ul&gt;&lt;li&gt;&lt;span&gt;Create Codebuild project&lt;/span&gt;&lt;/li&gt;&lt;li&gt;&lt;span&gt;config webhooks&lt;/span&gt;&lt;/li&gt;&lt;li&gt;&lt;span&gt;&lt;div style=&quot;text-align: left&quot;&gt;&lt;span&gt;set variable&lt;/span&gt;&lt;/div&gt;&lt;/span&gt;&lt;/li&gt;&lt;li&gt;&lt;div style=&quot;text-align: left&quot;&gt;permissions&lt;/div&gt;&lt;/li&gt;&lt;/ul&gt;&lt;/div&gt;" style="text;html=1;align=center;verticalAlign=middle;resizable=0;points=[];autosize=1;" parent="PO74r3kyPt4lwbCq_lyf-2" vertex="1">
          <mxGeometry y="6" width="190" height="90" as="geometry" />
        </mxCell>
        <mxCell id="PO74r3kyPt4lwbCq_lyf-4" value="Codebuild project" style="swimlane;" parent="Ba1Su-A6dtB4cg2xG0cj-1" vertex="1">
          <mxGeometry x="400" y="100" width="200" height="200" as="geometry" />
        </mxCell>
        <mxCell id="PO74r3kyPt4lwbCq_lyf-6" value="Container" style="swimlane;" parent="PO74r3kyPt4lwbCq_lyf-4" vertex="1">
          <mxGeometry x="20" y="61" width="160" height="120" as="geometry" />
        </mxCell>
        <mxCell id="PO74r3kyPt4lwbCq_lyf-7" value="Build Environment (SDKs)" style="text;html=1;align=center;verticalAlign=middle;resizable=0;points=[];autosize=1;" parent="PO74r3kyPt4lwbCq_lyf-6" vertex="1">
          <mxGeometry x="10" y="29" width="150" height="20" as="geometry" />
        </mxCell>
        <mxCell id="PO74r3kyPt4lwbCq_lyf-8" value="&lt;span style=&quot;text-align: left&quot;&gt;Build commands&lt;/span&gt;&lt;br style=&quot;text-align: left&quot;&gt;&lt;span style=&quot;text-align: left&quot;&gt;publish reports&lt;/span&gt;&lt;br style=&quot;text-align: left&quot;&gt;&lt;span style=&quot;text-align: left&quot;&gt;save artifacts&lt;/span&gt;" style="text;html=1;align=center;verticalAlign=middle;resizable=0;points=[];autosize=1;" parent="PO74r3kyPt4lwbCq_lyf-6" vertex="1">
          <mxGeometry x="31" y="66" width="100" height="50" as="geometry" />
        </mxCell>
        <mxCell id="PO74r3kyPt4lwbCq_lyf-9" value="Coderbuild project" style="swimlane;" parent="Ba1Su-A6dtB4cg2xG0cj-1" vertex="1">
          <mxGeometry x="610" y="100" width="200" height="200" as="geometry" />
        </mxCell>
        <mxCell id="PO74r3kyPt4lwbCq_lyf-10" value="&lt;ul&gt;&lt;li&gt;Install SDK&lt;/li&gt;&lt;li&gt;Build commands&lt;/li&gt;&lt;li&gt;publish reports&lt;/li&gt;&lt;li&gt;save artifacts&lt;/li&gt;&lt;/ul&gt;" style="text;html=1;align=left;verticalAlign=middle;resizable=0;points=[];autosize=1;" parent="PO74r3kyPt4lwbCq_lyf-9" vertex="1">
          <mxGeometry x="30" y="46" width="140" height="90" as="geometry" />
        </mxCell>
        <mxCell id="PO74r3kyPt4lwbCq_lyf-15" value="&lt;ul&gt;&lt;li&gt;AWS Managed service&lt;/li&gt;&lt;/ul&gt;" style="text;html=1;strokeColor=none;fillColor=none;align=left;verticalAlign=middle;whiteSpace=wrap;rounded=0;" parent="Ba1Su-A6dtB4cg2xG0cj-1" vertex="1">
          <mxGeometry x="4" y="345" width="120" height="70" as="geometry" />
        </mxCell>
        <mxCell id="PO74r3kyPt4lwbCq_lyf-16" value="&lt;ul&gt;&lt;li&gt;&lt;span&gt;Networking&lt;/span&gt;&lt;/li&gt;&lt;li&gt;&lt;span&gt;Permissions&lt;/span&gt;&lt;/li&gt;&lt;/ul&gt;" style="text;html=1;strokeColor=none;fillColor=none;align=left;verticalAlign=middle;whiteSpace=wrap;rounded=0;" parent="Ba1Su-A6dtB4cg2xG0cj-1" vertex="1">
          <mxGeometry x="4" y="415" width="120" height="70" as="geometry" />
        </mxCell>
        <mxCell id="PO74r3kyPt4lwbCq_lyf-17" value="Amazon ECR" style="outlineConnect=0;fontColor=#232F3E;gradientColor=none;strokeColor=#ffffff;fillColor=#232F3E;dashed=0;verticalLabelPosition=middle;verticalAlign=bottom;align=center;html=1;whiteSpace=wrap;fontSize=10;fontStyle=1;spacing=3;shape=mxgraph.aws4.productIcon;prIcon=mxgraph.aws4.ecr;" parent="Ba1Su-A6dtB4cg2xG0cj-1" vertex="1">
          <mxGeometry x="230" y="10" width="80" height="100" as="geometry" />
        </mxCell>
        <mxCell id="PO74r3kyPt4lwbCq_lyf-18" value="Amazon S3" style="outlineConnect=0;fontColor=#232F3E;gradientColor=none;strokeColor=#ffffff;fillColor=#232F3E;dashed=0;verticalLabelPosition=middle;verticalAlign=bottom;align=center;html=1;whiteSpace=wrap;fontSize=10;fontStyle=1;spacing=3;shape=mxgraph.aws4.productIcon;prIcon=mxgraph.aws4.s3;" parent="Ba1Su-A6dtB4cg2xG0cj-1" vertex="1">
          <mxGeometry x="340" y="10" width="80" height="100" as="geometry" />
        </mxCell>
        <mxCell id="PO74r3kyPt4lwbCq_lyf-19" value="Artifactory" style="outlineConnect=0;fontColor=#232F3E;gradientColor=none;fillColor=#277116;strokeColor=none;dashed=0;verticalLabelPosition=bottom;verticalAlign=top;align=center;html=1;fontSize=12;fontStyle=0;aspect=fixed;pointerEvents=1;shape=mxgraph.aws4.vault;" parent="Ba1Su-A6dtB4cg2xG0cj-1" vertex="1">
          <mxGeometry x="120" y="11" width="62" height="78" as="geometry" />
        </mxCell>
        <mxCell id="PO74r3kyPt4lwbCq_lyf-20" value="" style="dashed=0;outlineConnect=0;html=1;align=center;labelPosition=center;verticalLabelPosition=bottom;verticalAlign=top;shape=mxgraph.weblogos.github" parent="Ba1Su-A6dtB4cg2xG0cj-1" vertex="1">
          <mxGeometry x="27" y="110" width="75" height="75" as="geometry" />
        </mxCell>
        <mxCell id="PO74r3kyPt4lwbCq_lyf-21" value="" style="endArrow=classic;html=1;" parent="Ba1Su-A6dtB4cg2xG0cj-1" edge="1">
          <mxGeometry width="50" height="50" relative="1" as="geometry">
            <mxPoint x="110" y="170" as="sourcePoint" />
            <mxPoint x="410" y="220" as="targetPoint" />
          </mxGeometry>
        </mxCell>
        <mxCell id="PO74r3kyPt4lwbCq_lyf-22" value="" style="endArrow=classic;html=1;" parent="Ba1Su-A6dtB4cg2xG0cj-1" edge="1" target="PO74r3kyPt4lwbCq_lyf-19">
          <mxGeometry width="50" height="50" relative="1" as="geometry">
            <mxPoint x="480" y="230" as="sourcePoint" />
            <mxPoint x="200" y="80" as="targetPoint" />
          </mxGeometry>
        </mxCell>
        <mxCell id="PO74r3kyPt4lwbCq_lyf-23" value="" style="endArrow=classic;html=1;" parent="Ba1Su-A6dtB4cg2xG0cj-1" target="PO74r3kyPt4lwbCq_lyf-17" edge="1">
          <mxGeometry width="50" height="50" relative="1" as="geometry">
            <mxPoint x="480" y="230" as="sourcePoint" />
            <mxPoint x="210" y="90" as="targetPoint" />
          </mxGeometry>
        </mxCell>
        <mxCell id="PO74r3kyPt4lwbCq_lyf-24" value="" style="endArrow=classic;html=1;" parent="Ba1Su-A6dtB4cg2xG0cj-1" target="PO74r3kyPt4lwbCq_lyf-18" edge="1">
          <mxGeometry width="50" height="50" relative="1" as="geometry">
            <mxPoint x="480" y="230" as="sourcePoint" />
            <mxPoint x="220" y="100" as="targetPoint" />
          </mxGeometry>
        </mxCell>
        <mxCell id="PO74r3kyPt4lwbCq_lyf-25" value="AWS CodeBuild" style="outlineConnect=0;fontColor=#232F3E;gradientColor=none;strokeColor=#ffffff;fillColor=#232F3E;dashed=0;verticalLabelPosition=middle;verticalAlign=bottom;align=center;html=1;whiteSpace=wrap;fontSize=10;fontStyle=1;spacing=3;shape=mxgraph.aws4.productIcon;prIcon=mxgraph.aws4.codebuild;" parent="Ba1Su-A6dtB4cg2xG0cj-1" vertex="1">
          <mxGeometry x="186" y="320" width="80" height="110" as="geometry" />
        </mxCell>
        <mxCell id="PO74r3kyPt4lwbCq_lyf-26" value="AWS CodePipeline" style="outlineConnect=0;fontColor=#232F3E;gradientColor=none;strokeColor=#ffffff;fillColor=#232F3E;dashed=0;verticalLabelPosition=middle;verticalAlign=bottom;align=center;html=1;whiteSpace=wrap;fontSize=10;fontStyle=1;spacing=3;shape=mxgraph.aws4.productIcon;prIcon=mxgraph.aws4.codepipeline;" parent="Ba1Su-A6dtB4cg2xG0cj-1" vertex="1">
          <mxGeometry x="670" y="325" width="80" height="110" as="geometry" />
        </mxCell>
      </root>
    </mxGraphModel>
  </diagram>
</mxfile>
